<svg xmlns="http://www.w3.org/2000/svg" xmlns:xlink="http://www.w3.org/1999/xlink" width="1080" zoomAndPan="magnify" viewBox="0 0 810 809.999993" height="1080" preserveAspectRatio="xMidYMid meet" version="1.0"><defs><clipPath id="521688006e"><path d="M 166 449 L 643.738281 449 L 643.738281 514.996094 L 166 514.996094 Z M 166 449 " clip-rule="nonzero"/></clipPath><clipPath id="31394cead6"><path d="M 389 485 L 422 485 L 422 515.589844 L 389 515.589844 Z M 389 485 " clip-rule="nonzero"/></clipPath><clipPath id="b12ea495be"><path d="M 387 223.089844 L 452 223.089844 L 452 366 L 387 366 Z M 387 223.089844 " clip-rule="nonzero"/></clipPath><clipPath id="0b72c6157f"><path d="M 376 223.089844 L 395 223.089844 L 395 278 L 376 278 Z M 376 223.089844 " clip-rule="nonzero"/></clipPath></defs><g clip-path="url(#521688006e)"><path fill="#3a6ab9" d="M 632.75 474.476562 C 600.195312 453.902344 509.808594 426.101562 416.070312 485.617188 C 409.257812 489.941406 400.5625 489.941406 393.75 485.617188 C 300.011719 426.101562 209.625 453.902344 177.070312 474.476562 L 166.566406 503.222656 C 216.007812 470.707031 291.402344 459.410156 363.269531 478.9375 C 387.414062 485.496094 383.460938 514.96875 404.910156 514.96875 C 427.277344 514.96875 422.40625 485.496094 446.550781 478.9375 C 518.417969 459.410156 593.8125 470.707031 643.253906 503.222656 L 632.75 474.476562 " fill-opacity="1" fill-rule="nonzero"/></g><path fill="#00adef" d="M 398.992188 471.519531 C 324.808594 400.292969 240.8125 401.101562 195.398438 412.988281 L 185.941406 437.300781 L 201.375 452.71875 L 198.566406 434.046875 C 259.296875 420.421875 335.40625 432.171875 398.992188 471.519531 " fill-opacity="1" fill-rule="nonzero"/><path fill="#00adef" d="M 221.09375 387.605469 C 274.101562 383.078125 337.132812 401.671875 386.507812 442.125 C 327.46875 368.113281 249.390625 363.46875 211.835938 370.734375 L 204.394531 389.855469 L 228.796875 401.632812 L 221.09375 387.605469 " fill-opacity="1" fill-rule="nonzero"/><path fill="#00adef" d="M 410.828125 471.519531 C 485.011719 400.292969 569.007812 401.101562 614.421875 412.988281 L 623.878906 437.300781 L 608.445312 452.71875 L 611.253906 434.046875 C 550.523438 420.421875 474.414062 432.171875 410.828125 471.519531 " fill-opacity="1" fill-rule="nonzero"/><path fill="#00adef" d="M 588.726562 387.605469 C 535.71875 383.078125 472.6875 401.671875 423.3125 442.125 C 482.351562 368.113281 560.429688 363.46875 597.984375 370.734375 L 605.425781 389.855469 L 581.023438 401.632812 L 588.726562 387.605469 " fill-opacity="1" fill-rule="nonzero"/><g clip-path="url(#31394cead6)"><path fill="#3a6ab9" d="M 389.152344 485.300781 L 421.058594 485.300781 L 405.078125 515.261719 C 405.078125 515.261719 397.628906 501.226562 389.152344 485.300781 Z M 389.152344 485.300781 " fill-opacity="1" fill-rule="nonzero"/></g><path fill="#bfaa7b" d="M 444.492188 441.246094 L 425.300781 477.335938 L 384.910156 477.335938 C 376.433594 461.46875 368.066406 445.65625 365.71875 441.246094 C 368.984375 442.734375 372.765625 443.652344 376.890625 443.652344 C 382.332031 443.652344 387.203125 442.160156 391.039062 439.582031 C 394.820312 442.105469 399.75 443.652344 405.132812 443.652344 C 410.519531 443.652344 415.445312 442.160156 419.285156 439.582031 C 423.066406 442.105469 427.992188 443.652344 433.433594 443.652344 C 437.445312 443.652344 441.28125 442.734375 444.492188 441.246094 Z M 444.492188 441.246094 " fill-opacity="1" fill-rule="nonzero"/><path fill="#00adef" d="M 387.605469 332.398438 C 354.03125 303.695312 363.199219 276.253906 366.636719 261.988281 C 332.722656 304.726562 366.519531 338.753906 376.546875 346.261719 C 384.855469 352.390625 390.582031 367.226562 378.152344 368.773438 C 367.152344 370.148438 368.125 353.308594 368.125 353.308594 C 368.125 353.308594 363.257812 356.113281 363.257812 366.082031 C 363.257812 376.109375 362.683594 386.878906 362.683594 386.878906 L 362.683594 425.664062 C 362.683594 431.21875 368.984375 435.6875 376.832031 435.6875 C 384.683594 435.6875 390.984375 431.21875 390.984375 425.664062 C 390.984375 431.21875 397.285156 435.6875 405.078125 435.6875 C 412.867188 435.6875 419.226562 431.21875 419.226562 425.664062 C 419.226562 431.21875 425.527344 435.6875 433.378906 435.6875 C 441.167969 435.6875 447.527344 431.21875 447.527344 425.664062 L 447.527344 386.878906 C 447.46875 360.984375 411.894531 353.191406 387.605469 332.398438 Z M 387.605469 332.398438 " fill-opacity="1" fill-rule="nonzero"/><g clip-path="url(#b12ea495be)"><path fill="#00adef" d="M 440.996094 305.011719 C 442.484375 322.371094 426.617188 324.375 418.308594 317.386719 C 409.601562 310.054688 408.285156 296.761719 420.832031 286.335938 C 433.320312 275.910156 452.226562 249.84375 418.253906 223.148438 C 419.339844 249.613281 374.371094 275.164062 391.097656 310.570312 C 405.078125 340.128906 427.019531 337.78125 447.46875 365.566406 C 447.46875 365.453125 460.417969 321.453125 440.996094 305.011719 Z M 440.996094 305.011719 " fill-opacity="1" fill-rule="nonzero"/></g><g clip-path="url(#0b72c6157f)"><path fill="#00adef" d="M 383.59375 223.089844 C 371.390625 241.707031 390.410156 255.113281 376.832031 277.742188 C 386.285156 268.175781 407.597656 242.566406 383.59375 223.089844 Z M 383.59375 223.089844 " fill-opacity="1" fill-rule="nonzero"/></g></svg>